
<svg  id="loadingSVG" xmlns="http://www.w3.org/2000/svg"  xmlns:xlink="http://www.w3.org/1999/xlink" width="740" height="740" viewBox="0 0 740 740" version="1.1">
   <style>
    #loadingSVG {
      position: absolute;
    }
    .styleLoading0{stroke:  lightgrey;stroke-width: 2;fill: none;}
    .styleLoading1{fill:  #034798; opacity: 0.9;}
    .styleLoading2{opacity: 1;}
   </style>
     
   <polygon cx="30" cy="30" r="25" id="polygon3" points="282.2,210.5 286.1,221.7 297.9,221.7 288.5,229 291.9,240.3 282.2,233.6 272.5,240.3 276,229 266.6,221.7 278.3,221.7" class="styleLoading1" >
        <animateTransform attributeName="transform" type="rotate" from="0 370 278" to="360 370 278" begin="0s" dur="6s" repeatCount="indefinite"/>
   </polygon>   
   <polygon id="polygon5" points="320,173.5 323.3,184.9 335.1,185.6 325.3,192.3 328.1,203.8 318.8,196.5 308.8,202.7 312.8,191.6 303.8,183.9 315.6,184.5" class="styleLoading1" >
        <animateTransform attributeName="transform" type="rotate" from="0 370 278" to="360 370 278" begin="0s" dur="6s" repeatCount="indefinite"/>
   </polygon>   
   <polygon id="polygon7" points="370.2,160.2 374.1,171.5 385.9,171.5 376.5,178.7 379.9,190 370.2,183.3 360.5,190 363.9,178.7 354.5,171.5 366.3,171.5" class="styleLoading1" >
        <animateTransform attributeName="transform" type="rotate" from="0 370 278" to="360 370 278" begin="0s" dur="6s" repeatCount="indefinite"/>
   </polygon>   
   <polygon id="polygon9" points="420.5,173.7 424.4,184.9 436.2,184.9 426.8,192.2 430.2,203.5 420.5,196.7 410.8,203.5 414.2,192.2 404.8,184.9 416.6,184.9" class="styleLoading1" >
        <animateTransform attributeName="transform" type="rotate" from="0 370 278" to="360 370 278" begin="0s" dur="6s" repeatCount="indefinite"/>
   </polygon>   
   <polygon id="polygon11" points="457.5,210.9 461.4,222.2 473.2,222.2 463.8,229.4 467.2,240.7 457.5,234 447.8,240.7 451.2,229.4 441.8,222.2 453.6,222.2" class="styleLoading1" >
        <animateTransform attributeName="transform" type="rotate" from="0 370 278" to="360 370 278" begin="0s" dur="6s" repeatCount="indefinite"/>
   </polygon>   
   <polygon id="polygon13" points="470.8,260.5 474.7,271.8 486.5,271.8 477.1,279 480.5,290.3 470.8,283.6 461.1,290.3 464.5,279 455.1,271.8 466.9,271.8" class="styleLoading1" >
        <animateTransform attributeName="transform" type="rotate" from="0 370 278" to="360 370 278" begin="0s" dur="6s" repeatCount="indefinite"/>
   </polygon>   
   <polygon id="polygon15" points="457.3,311.3 461.1,322.6 472.9,322.6 463.5,329.8 466.9,341.1 457.3,334.4 447.6,341.1 451,329.8 441.6,322.6 453.4,322.6" class="styleLoading1" >
        <animateTransform attributeName="transform" type="rotate" from="0 370 278" to="360 370 278" begin="0s" dur="6s" repeatCount="indefinite"/>
   </polygon>   
   <polygon id="polygon17" points="420,348.1 423.9,359.3 435.7,359.3 426.3,366.6 429.7,377.9 420,371.1 410.3,377.9 413.8,366.6 404.4,359.3 416.1,359.3" class="styleLoading1" >
        <animateTransform attributeName="transform" type="rotate" from="0 370 278" to="360 370 278" begin="0s" dur="6s" repeatCount="indefinite"/>
   </polygon>   
   <polygon id="polygon19" points="369.9,361.6 373.8,372.9 385.6,372.9 376.2,380.1 379.6,391.4 369.9,384.7 360.3,391.4 363.7,380.1 354.3,372.9 366.1,372.9" class="styleLoading1" >
        <animateTransform attributeName="transform" type="rotate" from="0 370 278" to="360 370 278" begin="0s" dur="6s" repeatCount="indefinite"/>
   </polygon>   
   <polygon id="polygon21" points="319.6,348.6 323.5,359.8 335.3,359.8 325.9,367.1 329.3,378.4 319.6,371.6 310,378.4 313.4,367.1 304,359.8 315.8,359.8" class="styleLoading1" >
        <animateTransform attributeName="transform" type="rotate" from="0 370 278" to="360 370 278" begin="0s" dur="6s" repeatCount="indefinite"/>
   </polygon>   
   <polygon id="polygon23" points="282.9,311.1 286.7,322.3 298.5,322.3 289.1,329.6 292.5,340.9 282.9,334.1 273.2,340.9 276.6,329.6 267.2,322.3 279,322.3" class="styleLoading1" >
        <animateTransform attributeName="transform" type="rotate" from="0 370 278" to="360 370 278" begin="0s" dur="6s" repeatCount="indefinite"/>
   </polygon>

   <polygon id="polygon25" points="269.3,260.8 273.2,272 285,272 275.6,279.3 279,290.6 269.3,283.8 259.6,290.6 263.1,279.3 253.7,272 265.4,272" class="styleLoading1" >
        <animateTransform attributeName="transform" type="rotate" from="0 370 278" to="360 370 278" begin="0s" dur="6s" repeatCount="indefinite"/>
   </polygon>   

   <path id="path27" d="M353.16 292.617l12.938-12.938l-4.621-4.62l27.697-27.701l27.576 27.575l-27.455 27.5 l-4.232-4.231l-13.184 13.183l9.799 9.795c0 0 2.9 2.9 7.5 2.996c4.5 0.1 8.024-2.996 8.024-2.996l39.07-39.063 c0 0 2.357-2.854 2.396-6.857c0.039-4.008-2.747-7.67-2.747-7.67l-38.248-38.263c0 0-3.384-3.331-8.038-3.367 c-4.657-0.042-7.909 3.367-7.909 3.367l-39.521 39.52c0 0-1.781 3.348-1.781 6.401c0 3.5 1.8 6 1.8 6.021L353.16 292.617z " class="styleLoading1" />

   <path id="path29" d="M372.969 270.584l13.014-13.013l9.978 10.096c0 0 2.6 3 2.6 7.2 c0 4.651-2.688 7.282-2.688 7.282l-39.366 39.369c0 0-2.448 2.488-7.133 2.488c-4.479 0-7.476-2.646-7.476-2.646l-39.313-39.317 c0 0-2.417-3.759-2.417-6.872c0-4.271 2.613-7.591 2.613-7.591l38.081-38.148c0 0 3.162-3.446 8.041-3.446 c5.377 0 8.2 3.4 8.2 3.446l9.306 9.307l-12.457 12.448L349.629 247l-28.18 28.179l27.697 27.697l28.022-28.031L372.969 270.6 z" class="styleLoading1" />

   <g class="styleLoading2">
      <!-- "loading" text outlines -->
      <path d="M331.74 441.2h3.268v13.08h5.762v3.066h-9.03V441.2z" class="styleLoading1" />
      <path d="M347.244 457.61c-3.075 0-5.439-2.252-5.439-6.037s2.236-6.205 5.633-6.205 c3.204 0 5.4 2.5 5.4 6.014c0 4.264-2.73 6.229-5.525 6.229H347.244z M347.308 454.999c1.29 0 2.085-1.413 2.085-3.521 c0-1.725-0.602-3.498-2.085-3.498c-1.548 0-2.15 1.773-2.15 3.521c0 2 0.8 3.5 2.1 3.498H347.308z" class="styleLoading1" />
      <path d="M363.564 454.52c0 1.1 0 2.2 0.2 2.827h-2.945l-0.194-1.174h-0.064 c-0.688 0.935-1.763 1.438-3.01 1.438c-2.128 0-3.397-1.725-3.397-3.594c0-3.042 2.451-4.479 6.17-4.479v-0.144 c0-0.623-0.301-1.51-1.914-1.51c-1.075 0-2.214 0.407-2.902 0.862l-0.602-2.323c0.731-0.455 2.171-1.055 4.085-1.055 c3.504 0 4.6 2.3 4.6 5.055V454.52z M360.404 451.813c-1.72 0-3.053 0.455-3.053 1.845c0 0.9 0.6 1.4 1.3 1.4 c0.796 0 1.484-0.599 1.699-1.342c0.043-0.191 0.064-0.407 0.064-0.623V451.813z" class="styleLoading1" />
      <path d="M376.358 440.338v13.511c0 1.3 0 2.7 0.1 3.498h-2.902l-0.129-1.701h-0.064 c-0.645 1.294-1.935 1.965-3.289 1.965c-2.494 0-4.493-2.372-4.493-6.013c-0.021-3.93 2.192-6.229 4.708-6.229 c1.312 0 2.3 0.5 2.8 1.318h0.043v-6.349H376.358z M373.091 450.615c0-0.216 0-0.455-0.043-0.671 c-0.193-0.982-0.903-1.772-1.913-1.772c-1.506 0-2.258 1.484-2.258 3.329c0 2 0.9 3.2 2.2 3.2 c0.945 0 1.72-0.719 1.913-1.749c0.043-0.24 0.064-0.527 0.064-0.814V450.615z" class="styleLoading1" />
      <path d="M380.597 444.099c-1.097 0-1.806-0.862-1.806-1.94c0-1.102 0.73-1.94 1.849-1.96s1.806 0.8 1.8 1.9 c0 1.078-0.709 1.94-1.849 1.94H380.597z M378.984 457.347v-11.715h3.268v11.715H378.984z" class="styleLoading1" />
      <path d="M384.876 449.369c0-1.461-0.043-2.683-0.086-3.737h2.838l0.15 1.629h0.064 c0.43-0.767 1.483-1.893 3.246-1.893c2.15 0 3.8 1.6 3.8 5.055v6.924h-3.268v-6.492c0-1.509-0.474-2.539-1.655-2.539 c-0.903 0-1.44 0.694-1.678 1.365c-0.086 0.239-0.107 0.575-0.107 0.91v6.756h-3.268V449.369z" class="styleLoading1" />
      <path d="M407.432 455.646c0 2.252-0.408 4.097-1.612 5.271c-1.14 1.103-2.709 1.438-4.257 1.4 c-1.397 0-2.838-0.312-3.784-0.887l0.646-2.778c0.666 0.4 1.8 0.9 3.1 0.886c1.548 0 2.73-0.91 2.73-3.09v-0.743h-0.043 c-0.624 0.959-1.634 1.51-2.838 1.51c-2.602 0-4.45-2.348-4.45-5.702c0-3.785 2.171-6.181 4.772-6.181 c1.44 0 2.3 0.7 2.9 1.653h0.043l0.107-1.39h2.838c-0.043 0.767-0.086 1.749-0.086 3.498V455.646z M404.164 450.4 c0-0.216-0.021-0.455-0.064-0.671c-0.236-0.958-0.86-1.605-1.764-1.605c-1.203 0-2.149 1.198-2.149 3.3 c0 1.7 0.8 3.1 2.1 3.114c0.86 0 1.527-0.622 1.742-1.461c0.086-0.287 0.107-0.671 0.107-0.982V450.399z" class="styleLoading1" />
<!--
  <animate id="loopfadeIn" attributeName="opacity" from="1" to="0.1"  dur="1.5s" begin="0s;loopfadeOut.end" />  
  <animate id="loopfadeOut" attributeName="opacity" from="0.1" to="1" begin="loopfadeIn.end" dur="1.5s" />
-->
   </g>

</svg>  